<?xml version="1.0" standalone="no"?>
<!DOCTYPE svg PUBLIC "-//W3C//DTD SVG 20010904//EN"
 "http://www.w3.org/TR/2001/REC-SVG-20010904/DTD/svg10.dtd">
<svg version="1.0" xmlns="http://www.w3.org/2000/svg"
 width="894.000000pt" height="899.000000pt" viewBox="0 0 894.000000 899.000000"
 preserveAspectRatio="xMidYMid meet">

<g transform="translate(0.000000,899.000000) scale(0.100000,-0.100000)"
fill="#000000" stroke="none">
<path d="M4145 8724 c-1131 -91 -2178 -635 -2906 -1509 -459 -551 -774 -1216
-909 -1920 -46 -243 -61 -401 -67 -706 -7 -374 11 -604 73 -919 269 -1370
1209 -2531 2491 -3079 418 -178 837 -281 1311 -322 179 -15 655 -6 832 16 782
97 1514 406 2125 896 125 100 160 132 319 288 687 674 1104 1515 1237 2493 30
222 37 689 14 928 -80 841 -391 1609 -921 2270 -623 777 -1501 1307 -2488
1500 -251 50 -387 62 -731 65 -181 1 -352 1 -380 -1z m785 -179 c860 -106
1627 -458 2264 -1040 630 -575 1075 -1364 1241 -2200 184 -927 53 -1860 -380
-2692 -203 -391 -442 -711 -774 -1035 -322 -316 -621 -528 -1026 -728 -250
-124 -439 -198 -669 -264 -552 -159 -1125 -197 -1701 -115 -1117 160 -2135
806 -2770 1759 -395 593 -619 1244 -676 1965 -16 206 -6 614 20 810 88 659
299 1223 656 1760 557 836 1385 1425 2358 1680 213 56 476 98 732 119 112 9
605 -4 725 -19z"/>
<path d="M3454 8385 c-31 -32 -83 -143 -86 -187 -5 -52 24 -48 68 11 38 51 82
78 108 68 13 -5 13 -13 0 -59 -7 -29 -14 -79 -14 -111 0 -50 -3 -59 -22 -66
-20 -8 -28 -3 -57 31 -25 29 -36 36 -42 26 -15 -23 -10 -64 11 -91 28 -35 26
-46 -20 -115 -33 -49 -40 -68 -40 -109 0 -87 43 -109 87 -44 31 46 46 103 48
182 1 66 18 104 59 139 25 20 32 -15 12 -56 -28 -60 -17 -97 20 -69 16 11 19
28 21 107 1 51 2 96 2 99 1 3 12 11 26 17 22 10 27 9 31 -6 27 -85 73 -152
105 -152 15 0 19 7 19 35 0 31 -3 35 -25 35 -20 0 -30 10 -50 50 -31 61 -31
65 1 102 18 22 22 34 15 41 -8 8 -30 -9 -74 -58 -40 -43 -67 -66 -75 -61 -22
13 -13 61 23 120 19 32 35 62 35 67 0 15 -18 19 -43 10 -31 -12 -52 3 -61 42
-8 36 -47 37 -82 2z"/>
<path d="M3783 8218 c-24 -27 -37 -93 -20 -106 7 -5 59 -14 116 -20 96 -11
106 -11 148 8 32 14 44 24 41 37 -3 16 -16 18 -113 18 l-110 0 -5 40 c-6 47
-27 56 -57 23z"/>
<path d="M3183 8209 c-19 -19 -16 -53 5 -72 18 -17 82 -24 82 -9 0 4 -17 26
-38 50 -30 35 -39 41 -49 31z"/>
<path d="M5815 8115 c-22 -14 -74 -62 -116 -107 l-76 -82 -49 21 c-27 11 -70
24 -96 27 -43 6 -50 4 -73 -18 -15 -15 -23 -31 -19 -37 11 -18 87 -49 121 -49
17 0 34 -4 37 -9 8 -12 -49 -62 -151 -135 -83 -60 -107 -91 -82 -107 16 -11
22 -9 109 26 101 40 125 54 186 108 l57 51 71 -37 c39 -21 76 -37 82 -37 5 0
23 13 38 29 32 34 34 32 -72 71 -35 13 -66 30 -69 37 -4 10 33 54 102 123 115
115 127 142 70 148 -20 2 -45 -6 -70 -23z"/>
<path d="M3193 8006 c1 -42 5 -76 9 -76 5 0 18 20 30 45 l22 45 -20 27 c-36
47 -43 40 -41 -41z"/>
<path d="M3776 7948 c-8 -13 -18 -45 -21 -73 -11 -77 -20 -86 -41 -42 -10 20
-22 37 -28 37 -6 0 -24 -19 -40 -41 -15 -22 -33 -38 -38 -37 -6 2 -16 19 -22
38 -14 42 -33 50 -42 16 -8 -35 22 -198 46 -246 40 -78 49 -38 24 101 -13 75
52 87 76 14 19 -56 41 -42 61 40 19 75 46 135 63 135 8 0 25 -15 38 -32 21
-30 23 -44 23 -145 0 -69 4 -112 10 -110 15 5 25 65 27 167 2 105 -10 142 -58
179 -34 27 -60 27 -78 -1z"/>
<path d="M3190 7884 c0 -9 7 -44 16 -78 9 -33 24 -129 34 -213 18 -157 37
-210 80 -233 29 -16 30 9 5 126 -14 60 -24 134 -25 165 0 44 -7 70 -33 120
-19 35 -39 79 -45 97 -11 33 -32 44 -32 16z"/>
<path d="M5666 7628 c-9 -12 -16 -36 -16 -53 0 -32 41 -128 58 -139 12 -7 47
27 67 65 13 24 12 30 -16 75 -30 48 -55 74 -70 74 -4 0 -15 -10 -23 -22z"/>
<path d="M4265 7553 c-332 -27 -629 -95 -909 -207 -528 -212 -973 -552 -1315
-1006 -303 -401 -503 -880 -582 -1390 -26 -170 -37 -560 -20 -736 84 -871 514
-1644 1206 -2169 902 -684 2110 -806 3130 -316 864 415 1488 1217 1675 2151
50 251 55 305 55 625 -1 258 -4 320 -23 440 -72 459 -233 876 -484 1252 -523
782 -1350 1273 -2283 1353 -111 9 -356 11 -450 3z m415 -113 c388 -30 724
-122 1075 -295 794 -391 1354 -1092 1566 -1959 48 -198 70 -369 76 -602 14
-511 -81 -951 -302 -1399 -446 -904 -1312 -1514 -2310 -1627 -142 -15 -488
-15 -630 0 -997 113 -1868 726 -2310 1627 -222 452 -316 887 -302 1400 12 446
112 846 308 1238 534 1063 1658 1705 2829 1617z"/>
<path d="M4615 7086 c-75 -34 -115 -111 -123 -232 -4 -67 -1 -88 16 -126 26
-60 80 -96 164 -110 124 -22 204 10 248 97 22 44 25 63 25 155 0 94 -2 108
-23 137 -41 58 -104 86 -196 90 -55 2 -91 -1 -111 -11z m149 -70 c41 -17 50
-40 48 -126 -4 -170 -51 -238 -136 -199 -38 18 -49 58 -44 157 6 99 27 158 60
172 31 12 34 12 72 -4z"/>
<path d="M4047 7079 c-110 -26 -162 -81 -162 -172 0 -55 2 -61 37 -92 74 -69
218 -73 290 -8 l21 18 -5 -54 c-4 -43 -11 -60 -32 -78 -35 -30 -101 -32 -131
-3 -19 18 -26 19 -78 8 -31 -7 -57 -17 -57 -24 0 -19 50 -62 87 -75 55 -18
159 -6 219 24 99 50 142 129 130 239 -11 109 -47 165 -131 204 -53 25 -118 30
-188 13z m98 -73 c39 -17 55 -42 55 -89 0 -47 -46 -87 -100 -87 -54 0 -81 25
-87 83 -6 55 11 82 61 96 17 5 32 10 34 10 1 1 18 -5 37 -13z"/>
<path d="M5146 6984 l-16 -35 52 -23 c29 -12 94 -40 145 -61 51 -22 90 -41 88
-44 -3 -2 -33 -16 -68 -31 -95 -40 -153 -84 -208 -159 -27 -36 -49 -71 -49
-77 0 -10 90 -54 111 -54 4 0 10 9 14 20 23 74 162 190 288 241 54 22 78 37
86 56 7 14 8 29 4 34 -4 4 -91 39 -193 77 -102 39 -197 75 -211 80 -24 10 -27
7 -43 -24z"/>
<path d="M3530 6930 c-40 -15 -49 -25 -75 -80 -19 -38 -48 -77 -75 -100 l-45
-38 19 -38 18 -38 65 67 c36 37 67 66 68 65 2 -2 34 -70 71 -153 37 -82 69
-152 70 -154 6 -7 114 41 114 50 0 9 -163 399 -177 424 -7 10 -16 10 -53 -5z"/>
<path d="M5555 6540 c-5 -9 50 -49 86 -62 39 -15 164 -103 237 -167 179 -157
448 -516 553 -736 43 -90 99 -234 99 -256 0 -4 -30 -28 -67 -53 -170 -113
-265 -263 -293 -462 -21 -151 -31 -509 -28 -971 2 -265 0 -479 -3 -475 -4 4
-18 39 -32 77 -32 90 -75 181 -93 195 -10 9 -46 9 -143 -1 -167 -16 -166 -16
-156 96 3 44 31 184 62 310 30 127 57 240 60 253 3 12 17 29 32 36 66 35 90
111 52 164 -11 17 -21 41 -21 54 0 50 166 568 190 592 5 5 33 21 62 35 97 48
88 76 -35 107 -88 21 -153 15 -248 -25 -40 -17 -73 -30 -74 -28 -1 1 -27 39
-59 85 -67 96 -101 126 -182 159 -73 30 -170 29 -204 -2 -31 -28 -52 -73 -45
-95 10 -30 82 -66 170 -85 71 -15 236 -88 235 -104 0 -3 -45 -33 -100 -66 -55
-33 -139 -91 -187 -130 -105 -84 -153 -156 -302 -450 -142 -280 -195 -411
-226 -561 -20 -100 -21 -320 0 -439 26 -152 49 -205 137 -323 125 -166 138
-208 93 -299 -25 -49 -123 -153 -144 -153 -27 0 -42 46 -102 319 -18 81 -30
112 -52 138 -39 44 -157 132 -261 194 -62 37 -88 59 -93 77 -9 38 16 181 64
362 55 211 80 313 88 372 5 42 10 49 43 65 34 17 37 22 40 65 2 26 -2 64 -7
85 -10 34 -4 59 50 235 65 214 143 434 161 456 16 19 95 58 146 71 50 14 53
31 14 71 -36 36 -138 56 -282 54 -85 -2 -119 -7 -180 -28 -41 -15 -117 -31
-169 -36 -109 -12 -120 -8 -166 61 -89 133 -158 189 -234 189 -47 0 -76 -30
-86 -89 -10 -59 14 -98 68 -111 111 -27 147 -42 171 -71 14 -17 26 -39 26 -50
0 -25 -35 -80 -113 -176 -133 -166 -193 -251 -224 -318 -153 -338 -183 -420
-203 -559 -27 -182 31 -378 201 -686 85 -153 114 -294 70 -334 -26 -24 -195
-43 -217 -25 -28 23 -43 66 -59 161 -17 96 -32 127 -78 162 -24 17 -41 19
-160 18 -101 -2 -137 1 -145 11 -20 24 47 309 161 687 l44 144 42 14 41 14 0
53 c0 45 -3 55 -20 60 -11 3 -20 13 -20 22 0 8 39 132 87 275 94 282 92 278
167 278 17 0 37 5 44 12 19 19 14 65 -10 93 -30 34 -103 45 -311 45 -196 0
-210 5 -232 88 -26 93 -32 101 -87 127 -96 45 -148 26 -148 -52 0 -38 5 -50
33 -76 19 -18 49 -41 67 -52 37 -22 55 -62 46 -99 -3 -13 -92 -106 -198 -207
-281 -266 -309 -298 -347 -405 -52 -143 -81 -285 -88 -424 -5 -110 -2 -138 20
-236 27 -119 63 -201 122 -279 49 -63 75 -85 170 -141 100 -58 128 -77 129
-89 1 -5 -55 -15 -124 -21 -98 -9 -137 -18 -182 -38 -54 -25 -59 -26 -87 -12
-84 44 -231 233 -267 344 -32 102 -11 258 82 589 l47 167 -6 166 c-3 91 -15
294 -28 452 -21 284 -21 287 -2 320 41 70 198 117 289 88 21 -7 69 -30 105
-51 74 -44 94 -48 110 -18 23 44 -10 132 -81 212 -47 53 -93 80 -166 98 -114
27 -121 57 -26 126 37 27 80 68 96 91 50 73 46 164 -10 254 -29 46 -128 97
-206 105 -73 7 -76 -5 -27 -102 72 -142 46 -236 -94 -343 -99 -77 -224 -191
-253 -233 -53 -77 -66 -202 -39 -396 34 -254 45 -631 25 -878 -6 -66 -26 -217
-46 -335 -30 -180 -35 -231 -31 -315 5 -116 35 -216 99 -337 76 -142 304 -437
541 -700 l97 -106 -28 -76 c-32 -89 -26 -111 29 -111 32 0 36 4 69 66 l35 66
50 -34 c75 -51 248 -145 351 -191 132 -59 250 -89 399 -102 133 -12 200 -24
209 -39 3 -4 -6 -42 -20 -85 -13 -42 -24 -81 -24 -85 0 -14 57 -33 78 -27 24
8 28 16 56 121 l21 80 65 -2 c36 -1 282 -2 548 -2 l482 -1 -6 -27 c-4 -16 -11
-38 -15 -51 -5 -13 -9 -36 -9 -52 0 -34 37 -47 78 -28 28 14 42 47 58 143 l9
49 80 18 c163 38 291 91 477 198 175 101 237 152 465 382 232 233 266 276 333
413 53 109 139 370 147 450 7 63 -9 166 -42 276 -172 576 -215 752 -221 899
-5 114 -5 115 26 168 25 43 35 52 58 52 43 0 88 -34 103 -77 16 -45 18 -180 5
-379 -13 -217 5 -263 66 -164 43 70 67 185 83 393 15 189 30 279 61 356 12 30
15 56 10 94 -10 79 -52 226 -91 319 -79 189 -443 613 -735 858 -143 119 -305
207 -451 245 -67 18 -66 18 -74 5z m-800 -1345 c14 -13 25 -34 25 -47 0 -32
-34 -170 -64 -255 -13 -39 -45 -151 -71 -249 -71 -268 -73 -270 -161 -261 -87
9 -157 48 -194 108 -47 77 -101 198 -113 255 -27 128 64 279 225 374 45 26
264 99 301 99 17 1 38 -9 52 -24z m1198 -51 c7 -24 0 -59 -37 -176 -26 -80
-62 -215 -82 -300 -19 -84 -43 -169 -52 -187 -34 -69 -112 -66 -191 5 -61 55
-82 113 -84 232 -1 62 3 86 22 125 34 71 91 138 176 209 153 128 230 156 248
92z m601 -10 c37 -37 4 -142 -60 -190 -76 -57 -112 -101 -131 -161 -33 -104
-73 -67 -61 57 6 61 90 199 160 266 51 47 68 53 92 28z m-2930 -129 c-1 -32
-27 -126 -73 -266 -57 -171 -90 -294 -91 -336 0 -11 -67 -33 -99 -33 -86 0
-136 41 -220 184 -67 113 -74 147 -47 224 25 71 68 122 142 173 103 69 228
109 334 106 l55 -2 -1 -50z m-605 -523 c20 -20 62 -67 93 -104 73 -84 120
-108 215 -108 l70 0 -8 -44 c-16 -84 -50 -212 -94 -346 -24 -74 -56 -180 -70
-235 -37 -136 -49 -159 -83 -150 -15 3 -51 22 -80 42 -149 101 -250 286 -268
488 -8 96 30 390 55 425 19 25 94 70 119 70 8 0 31 -17 51 -38z m1037 -4 c16
-12 59 -50 95 -83 116 -106 131 -113 242 -121 53 -4 101 -12 107 -19 22 -27
-90 -595 -136 -687 -14 -27 -15 -27 -58 -14 -53 16 -144 84 -213 159 -81 89
-164 263 -183 384 -18 114 15 318 61 376 25 33 47 34 85 5z m1333 -21 c20 -13
70 -46 111 -74 114 -76 145 -89 192 -76 l39 10 -7 -46 c-3 -25 -17 -104 -30
-176 -14 -71 -34 -190 -45 -264 -11 -74 -28 -155 -38 -180 -15 -43 -20 -47
-66 -59 -57 -15 -173 -1 -235 27 -76 35 -130 148 -130 270 0 160 118 591 161
591 7 0 29 -10 48 -23z m1025 -316 c8 -22 27 -85 41 -141 87 -344 70 -717 -43
-909 -62 -106 -176 -242 -225 -267 -24 -13 -28 -13 -33 0 -6 16 10 51 64 134
33 52 68 123 116 233 9 20 24 67 33 105 16 62 18 113 15 477 -2 256 0 407 6
407 6 0 17 -18 26 -39z m-427 -673 c51 -56 124 -256 125 -344 1 -57 -50 -192
-102 -274 -32 -50 -131 -137 -235 -207 -77 -52 -100 -63 -216 -104 -85 -29
-99 -32 -114 -19 -30 25 -15 157 43 370 28 102 62 237 77 300 34 152 67 218
122 248 48 26 153 50 229 51 40 1 55 -4 71 -21z m-509 -43 c17 -9 34 -24 37
-35 7 -21 -31 -234 -47 -265 -17 -34 -51 -65 -69 -65 -23 0 -61 46 -95 117
-68 138 -14 258 117 262 14 1 40 -6 57 -14z m-1213 -76 c65 -47 61 -25 31
-203 -14 -80 -34 -126 -57 -126 -19 0 -40 64 -50 152 -6 51 -13 110 -16 131
-6 47 3 87 21 87 7 0 39 -19 71 -41z m-837 -25 c80 -10 104 -36 142 -149 17
-52 34 -118 37 -147 5 -49 2 -57 -32 -108 -93 -139 -206 -252 -278 -279 -36
-14 -28 -16 -73 20 -22 17 -65 44 -96 60 -73 37 -73 40 -12 229 l45 142 53 -6
c42 -6 57 -4 70 9 22 22 21 26 -20 118 -57 125 -40 136 164 111z m1147 -116
c103 -63 130 -100 144 -204 12 -81 27 -127 82 -246 l40 -87 -19 -38 c-20 -39
-120 -140 -180 -182 -48 -33 -192 -71 -297 -77 -79 -4 -93 -3 -112 14 -53 46
-55 105 -9 249 79 249 116 373 137 463 24 105 40 144 66 159 26 16 51 7 148
-51z m-1622 -52 c48 -7 92 -17 98 -23 19 -19 -49 -248 -80 -267 -19 -12 -98
30 -144 77 -43 42 -107 157 -107 191 0 36 81 44 233 22z m983 -229 c95 -45
178 -93 199 -117 23 -26 16 -112 -19 -223 -33 -105 -48 -127 -90 -127 -51 0
-72 32 -138 210 -103 278 -95 246 -74 269 26 28 42 27 122 -12z m1458 -87 c0
-52 -75 -324 -105 -381 -24 -49 -54 -57 -125 -35 -92 29 -144 90 -144 168 0
69 30 98 259 255 43 30 72 43 90 41 24 -3 26 -7 25 -48z m-1689 -73 c8 -13 24
-50 35 -83 11 -32 34 -85 51 -117 17 -31 29 -67 27 -80 -3 -20 -8 -22 -73 -21
-180 2 -255 23 -255 72 0 42 68 158 120 205 59 53 73 57 95 24z m1210 -274
c18 -18 15 -64 -7 -90 -28 -35 -147 -58 -163 -33 -10 17 44 99 78 121 39 23
70 24 92 2z"/>
<path d="M1615 7139 c-31 -18 -45 -40 -45 -73 0 -25 -16 -46 -97 -123 -53 -51
-100 -93 -104 -93 -16 0 -39 -33 -39 -55 0 -46 85 -152 263 -327 171 -169 182
-178 219 -178 35 0 38 2 28 20 -6 10 -45 54 -88 97 -108 109 -242 266 -271
317 l-25 42 72 110 c93 140 116 164 163 164 46 0 88 -30 223 -160 108 -104
129 -139 101 -169 -22 -25 -19 -58 8 -76 25 -16 87 -31 87 -21 0 23 -46 178
-63 211 -26 53 -124 154 -217 225 -113 86 -174 111 -215 89z"/>
<path d="M7454 7106 c-17 -8 -61 -39 -98 -71 -37 -31 -73 -54 -81 -51 -7 2
-16 18 -20 35 -9 44 -38 40 -121 -14 -91 -60 -94 -63 -87 -81 5 -13 15 -15 46
-10 23 4 47 12 54 18 15 12 24 4 201 -175 53 -54 105 -112 116 -129 18 -28 18
-31 3 -43 -24 -17 -22 -21 20 -50 40 -27 82 -32 100 -14 18 18 -16 76 -87 150
-33 35 -60 69 -60 76 0 21 75 16 91 -5 13 -17 24 -18 106 -12 101 6 122 19
123 71 0 33 -20 51 -93 84 -45 21 -57 31 -52 44 4 12 -3 21 -20 29 -14 6 -25
17 -26 24 -1 7 -2 22 -3 33 0 11 -7 20 -13 19 -7 -1 -28 -2 -47 -2 -24 -2 -35
-7 -39 -21 -3 -11 -20 -26 -39 -34 -32 -14 -75 -63 -64 -74 2 -3 34 7 71 22
70 28 100 29 100 5 0 -10 -16 -17 -48 -22 -53 -7 -97 -31 -97 -52 0 -20 23
-26 91 -26 45 0 67 5 88 21 26 19 30 20 58 6 58 -30 68 -67 17 -67 -15 0 -24
6 -24 15 0 19 -28 19 -72 1 -18 -8 -61 -18 -93 -21 l-60 -7 -53 66 c-29 37
-52 75 -50 84 2 9 50 45 108 80 82 48 105 67 105 84 0 27 -12 31 -51 14z"/>
<path d="M1605 6829 c-28 -34 -30 -72 -5 -77 8 -1 30 7 48 18 34 21 43 55 20
78 -19 19 -34 14 -63 -19z"/>
<path d="M7128 6766 c-17 -24 -17 -25 27 -65 25 -23 51 -41 60 -41 24 0 18
-28 -10 -46 -36 -23 -68 -11 -110 41 -35 42 -95 73 -116 59 -18 -11 21 -67 77
-112 32 -26 59 -54 59 -61 0 -23 -50 -53 -97 -58 -52 -6 -90 13 -118 60 l-18
29 -21 -47 c-19 -43 -20 -50 -6 -65 15 -16 116 -40 172 -40 16 0 51 14 77 31
l47 32 39 -38 c42 -41 73 -44 78 -6 3 16 -6 34 -27 55 -42 44 -27 64 49 68 50
3 55 5 65 32 9 25 7 31 -15 45 -13 9 -53 46 -89 84 -70 73 -95 82 -123 43z"/>
<path d="M1794 6746 c-44 -9 -57 -18 -88 -59 -43 -56 -45 -80 -10 -112 29 -27
91 -34 112 -13 18 18 14 46 -8 58 -35 19 -23 32 24 25 43 -7 44 -7 56 30 15
44 6 85 -18 84 -9 -1 -40 -6 -68 -13z"/>
<path d="M7736 4569 c-12 -79 -16 -169 -7 -169 5 0 12 11 15 24 7 29 28 38 59
27 32 -12 218 -151 213 -159 -3 -4 -61 -36 -129 -72 -108 -56 -127 -63 -141
-51 -9 7 -16 25 -16 39 0 16 -4 22 -9 17 -5 -6 -12 -62 -16 -125 l-6 -115 20
32 c19 31 92 78 265 173 l77 42 97 -12 c53 -6 103 -17 110 -22 6 -6 12 -24 12
-41 0 -62 9 -18 19 97 11 114 8 164 -5 97 -10 -47 -35 -55 -147 -46 l-95 7
-108 79 c-137 100 -162 124 -184 173 l-18 40 -6 -35z"/>
<path d="M1077 4561 c23 -11 46 -28 52 -39 14 -27 26 -128 15 -135 -5 -3 -115
-13 -246 -23 -255 -19 -282 -17 -291 28 -7 37 -8 -115 -1 -166 4 -25 10 -46
15 -46 5 0 6 13 3 28 -11 53 3 57 257 76 129 10 241 20 251 22 13 4 17 -6 23
-59 9 -80 -10 -124 -55 -134 -17 -3 -30 -10 -30 -15 0 -12 110 -1 123 12 5 4
1 103 -7 219 -9 116 -16 220 -16 231 0 18 -7 20 -67 20 l-68 0 42 -19z"/>
<path d="M897 3856 c-83 -34 -122 -68 -153 -133 -96 -195 23 -403 239 -420 54
-5 73 -1 134 24 97 41 138 75 170 141 23 46 28 71 28 127 0 123 -59 210 -180
266 -59 27 -164 25 -238 -5z m245 -65 c13 -5 35 -12 51 -16 16 -3 39 -22 57
-46 105 -145 -7 -291 -261 -337 -137 -26 -249 52 -249 172 0 111 97 192 262
220 105 18 112 18 140 7z"/>
<path d="M7591 3609 c-34 -127 -61 -232 -59 -233 5 -5 101 -36 110 -36 17 0 7
17 -17 28 -41 19 -50 52 -35 122 7 33 16 63 20 65 11 7 451 -113 477 -130 17
-12 23 -25 23 -52 0 -60 16 -27 44 91 25 108 29 147 8 86 -6 -16 -18 -33 -26
-36 -14 -5 -471 111 -496 126 -16 10 18 112 46 138 16 14 38 22 62 22 21 0 32
4 27 9 -9 8 -93 31 -113 31 -4 0 -37 -104 -71 -231z"/>
<path d="M1425 3211 c0 -25 -3 -54 -7 -64 -9 -21 -400 -217 -433 -217 -14 0
-32 11 -44 26 -30 39 -26 25 21 -71 42 -84 67 -114 46 -54 -9 27 -8 34 13 54
22 20 359 198 359 189 0 -2 -54 -128 -120 -280 -67 -152 -119 -279 -116 -281
2 -2 112 50 245 116 132 67 250 121 261 121 12 0 28 -13 40 -32 31 -52 23 -27
-20 63 -47 97 -51 102 -43 57 5 -31 1 -38 -28 -61 -40 -30 -320 -169 -327
-163 -2 3 46 120 108 260 l113 256 -17 39 c-10 21 -25 50 -34 64 l-17 25 0
-47z"/>
<path d="M7402 3115 c-28 -58 -52 -108 -52 -110 0 -3 13 9 29 27 l30 33 221
-110 c237 -117 262 -136 241 -182 -6 -14 -10 -28 -7 -30 4 -4 93 161 115 212
2 5 -10 -3 -28 -18 -18 -15 -37 -27 -43 -27 -16 0 -420 209 -441 228 -14 12
-17 26 -14 49 3 18 5 33 4 33 -1 0 -26 -47 -55 -105z"/>
<path d="M7213 2764 c5 -26 0 -34 -45 -69 -28 -22 -60 -57 -71 -77 -38 -76
-18 -169 46 -209 52 -33 121 -22 253 39 61 29 122 52 136 52 30 0 76 -34 88
-65 13 -33 -5 -93 -36 -126 -52 -54 -115 -67 -204 -43 -25 7 -14 -3 103 -91
l38 -28 -7 27 c-6 24 2 34 64 94 76 73 99 123 88 191 -7 48 -55 103 -101 119
-49 16 -113 1 -235 -56 -105 -49 -147 -58 -178 -36 -88 62 -11 204 110 204 27
0 63 -7 80 -16 57 -30 25 8 -56 65 l-78 54 5 -29z"/>
<path d="M1645 2441 c-112 -52 -175 -152 -175 -275 0 -79 32 -148 101 -221 46
-49 124 -105 146 -105 5 0 44 30 88 66 100 82 117 89 153 66 20 -13 24 -14 17
-2 -20 34 -139 170 -143 165 -3 -3 0 -11 6 -17 13 -13 16 -57 4 -73 -4 -5 -42
-41 -85 -79 l-78 -68 -55 36 c-161 107 -110 348 94 448 149 74 285 21 324
-125 11 -42 10 -54 -6 -100 -10 -29 -21 -59 -24 -67 -2 -8 25 14 62 50 36 35
66 67 66 71 0 3 -10 4 -22 2 -20 -4 -27 4 -51 60 -33 76 -100 150 -160 178
-30 13 -65 19 -122 19 -68 0 -89 -4 -140 -29z"/>
<path d="M6743 2175 c-60 -40 -233 -202 -233 -218 0 -6 9 -1 20 11 41 43 56
33 238 -158 109 -114 172 -187 172 -200 0 -11 -8 -33 -17 -48 -9 -15 25 13 75
63 51 49 92 91 92 93 0 2 -10 -4 -22 -12 -40 -28 -60 -19 -144 65 l-82 82 25
21 25 22 165 -26 165 -27 59 51 c60 52 64 70 10 42 -40 -21 -92 -20 -231 4
-63 11 -116 20 -118 20 -1 0 7 18 18 40 52 102 -9 210 -120 210 -35 0 -57 -8
-97 -35z m84 -40 c37 -10 83 -71 83 -111 0 -41 -28 -99 -63 -132 l-24 -23 -79
86 c-44 48 -80 90 -82 95 -5 14 51 72 83 86 29 13 35 13 82 -1z"/>
<path d="M2379 1974 c12 -15 21 -33 21 -40 0 -7 -50 -75 -112 -151 -61 -76
-131 -164 -156 -195 -33 -43 -52 -58 -70 -58 -24 0 -25 2 -19 49 4 30 1 53 -6
60 -20 20 -53 12 -67 -15 -12 -22 -12 -29 1 -52 20 -37 76 -72 114 -72 52 0
116 51 226 181 58 68 115 139 128 157 24 34 65 44 89 20 6 -6 14 -9 17 -6 6 5
-168 148 -180 148 -4 0 3 -12 14 -26z"/>
<path d="M6146 1728 c-104 -67 -183 -124 -177 -126 6 -2 18 1 26 8 8 6 24 9
35 5 26 -8 290 -403 290 -433 0 -10 -9 -27 -20 -37 -49 -44 1 -18 171 91 101
64 185 118 186 119 1 0 -8 35 -21 76 l-24 74 -1 -48 c-2 -80 -19 -107 -109
-166 -44 -29 -87 -51 -95 -49 -14 3 -153 196 -145 202 1 2 32 24 68 50 72 52
103 57 146 24 l29 -23 -16 25 c-8 14 -33 53 -54 88 -21 34 -40 62 -42 62 -2 0
0 -18 3 -40 5 -32 3 -45 -12 -62 -28 -32 -137 -99 -145 -91 -4 5 -35 49 -68
100 l-60 92 85 55 c109 72 124 75 175 41 l41 -27 -18 31 c-10 17 -28 43 -39
56 l-20 26 -189 -123z"/>
<path d="M2713 1737 c31 -30 32 -33 12 -78 -25 -60 -229 -392 -247 -403 -13
-8 -26 -7 -50 2 -27 10 -30 10 -18 -2 31 -28 199 -125 204 -117 3 4 -8 18 -24
30 -17 12 -30 27 -29 34 0 20 244 430 262 441 12 7 26 7 47 -1 16 -6 30 -8 30
-5 0 7 -23 21 -140 85 -64 34 -71 36 -47 14z"/>
<path d="M5763 1507 c-68 -23 -81 -37 -33 -37 47 0 50 -22 39 -247 -5 -109
-11 -202 -12 -207 -5 -15 -297 313 -297 333 0 11 12 29 26 40 15 12 22 21 17
21 -13 0 -206 -71 -215 -79 -4 -3 10 -6 30 -6 32 -1 44 -8 78 -45 197 -218
377 -410 380 -407 2 1 12 139 23 306 19 286 21 305 42 327 21 23 21 24 3 23
-10 0 -47 -10 -81 -22z"/>
<path d="M3390 1402 c0 -5 11 -13 25 -16 49 -12 50 -34 4 -214 -52 -206 -56
-271 -17 -330 39 -58 133 -102 217 -102 68 0 102 14 143 57 34 36 40 51 94
257 49 190 63 212 118 200 66 -14 16 5 -77 30 -117 31 -123 31 -77 8 22 -10
36 -26 38 -40 5 -32 -66 -326 -94 -390 -27 -61 -63 -82 -143 -82 -63 0 -98 13
-138 53 -30 28 -33 37 -33 86 0 34 18 124 45 226 37 142 49 173 70 191 l27 21
-84 21 c-47 12 -92 24 -101 28 -9 3 -17 2 -17 -4z"/>
<path d="M3608 1343 c7 -3 16 -2 19 1 4 3 -2 6 -13 5 -11 0 -14 -3 -6 -6z"/>
<path d="M4978 1286 c-116 -23 -145 -36 -80 -36 22 0 44 -4 47 -10 9 -15 95
-450 95 -483 0 -20 -8 -32 -32 -47 -18 -11 -29 -20 -24 -20 31 0 236 45 216
47 -50 7 -68 13 -73 27 -3 8 -24 113 -47 235 -22 121 -43 227 -46 235 -6 14
16 41 52 63 25 15 19 15 -108 -11z"/>
<path d="M4105 1250 c3 -5 15 -10 25 -10 10 0 33 -12 51 -27 l32 -27 -7 -225
c-7 -248 -11 -263 -69 -280 -26 -8 -16 -9 55 -10 l87 -1 -26 26 c-21 21 -24
31 -19 62 3 20 6 111 6 200 0 94 4 162 9 160 5 -1 91 -110 192 -241 100 -130
184 -235 186 -233 2 2 7 125 11 273 8 293 8 296 66 312 29 9 28 9 -19 10 -27
1 -74 4 -102 7 -37 5 -53 3 -53 -5 0 -6 13 -11 30 -11 19 0 33 -7 40 -19 11
-21 12 -259 1 -353 l-6 -57 -169 230 -168 229 -80 0 c-50 0 -77 -4 -73 -10z"/>
</g>
</svg>
